<?xml version="1.0" encoding="UTF-8" standalone="no"?>
<!-- Created with Inkscape (http://www.inkscape.org/) -->

<svg
   width="113"
   height="28"
   viewBox="0 0 29.897917 7.4083331"
   version="1.1"
   id="svg5"
   xml:space="preserve"
   inkscape:export-filename="now.svg"
   inkscape:export-xdpi="96"
   inkscape:export-ydpi="96"
   inkscape:version="1.2.1 (9c6d41e410, 2022-07-14)"
   sodipodi:docname="now.svg"
   xmlns:inkscape="http://www.inkscape.org/namespaces/inkscape"
   xmlns:sodipodi="http://sodipodi.sourceforge.net/DTD/sodipodi-0.dtd"
   xmlns="http://www.w3.org/2000/svg"
   xmlns:svg="http://www.w3.org/2000/svg"><sodipodi:namedview
     id="namedview7"
     pagecolor="#ffffff"
     bordercolor="#000000"
     borderopacity="0.25"
     inkscape:showpageshadow="2"
     inkscape:pageopacity="0.0"
     inkscape:pagecheckerboard="0"
     inkscape:deskcolor="#d1d1d1"
     inkscape:document-units="px"
     showgrid="false"
     inkscape:zoom="6.7877196"
     inkscape:cx="73.441455"
     inkscape:cy="-10.091755"
     inkscape:window-width="1920"
     inkscape:window-height="1001"
     inkscape:window-x="-9"
     inkscape:window-y="-9"
     inkscape:window-maximized="1"
     inkscape:current-layer="layer2" /><defs
     id="defs2"><style
       id="style16">.cls-1,.cls-2{fill:#409eff;}.cls-1{fill-rule:evenodd;}</style></defs><g
     inkscape:label="图层 1"
     inkscape:groupmode="layer"
     id="layer1"
     transform="translate(-10.071791,-9.1127478)" /><g
     inkscape:groupmode="layer"
     id="layer2"
     inkscape:label="图层 2"
     transform="translate(-14.428759,-9.1127478)"><g
       id="g402"
       transform="matrix(0.95196247,0,0,0.92236714,0.69312194,0.95787628)"><path
         d="m 15.203625,11.363996 1.091631,-1.7543308 c 0.06035,-0.096502 0.164986,-0.1550763 0.277409,-0.1550763 h 5.12186 c 0.111937,0 0.216087,0.058094 0.276437,0.153636 l 1.104772,1.7552911 c 0.07641,0.121949 0.06716,0.279906 -0.02336,0.391292 l -3.5927,4.431439 a 0.40608891,0.40060588 0 0 1 -0.63853,0 l -3.593185,-4.432399 c -0.09004,-0.110906 -0.09977,-0.268383 -0.02433,-0.389852 z"
         fill="#f2c336"
         p-id="2616"
         id="path482"
         style="fill-opacity:1;stroke-width:0.00944115" /><path
         d="M 21.560688,9.7681023 21.837123,10.198283 22.12086,9.7681023 21.84053,9.3768106 Z"
         fill="#e8a200"
         p-id="2617"
         id="path484"
         style="fill-opacity:1;stroke-width:0.00944115" /><path
         d="m 15.227959,11.753848 3.54549,4.372865 -1.464918,-4.570191 -2.153575,0.01584 c 0.0058,0.0653 0.03017,0.12867 0.073,0.181482 z m 4.232201,4.432399 3.592699,-4.431439 a 0.34174933,0.33713502 0 0 0 0.073,-0.183883 l -2.654375,-0.09218 -1.515532,4.815529 a 0.40482354,0.3993576 0 0 0 0.504204,-0.108025 z"
         fill="#f58200"
         p-id="2618"
         id="path486"
         style="fill-opacity:1;stroke-width:0.00944115" /><path
         d="M 23.07622,11.363516 22.09896,9.8108323 20.9499,11.50803 H 20.3834 L 19.16377,9.6711197 17.952414,11.442735 H 17.334325 L 16.217873,9.7340144 15.203625,11.363996 a 0.34588614,0.34121598 0 0 0 -0.04867,0.21029 l 7.970907,-0.0653 a 0.34067863,0.33607878 0 0 0 -0.04964,-0.145474 z"
         fill="#f58200"
         p-id="2619"
         id="path488"
         style="fill-opacity:1;stroke-width:0.00944115" /><path
         d="m 22.12086,9.7681023 -0.283737,0.4301807 0.798162,1.28094 -3.494876,4.229792 -0.111451,0.7677 4.205922,-4.902429 -0.02677,-0.238136 z"
         fill="#f46800"
         p-id="2620"
         id="path490"
         style="fill-opacity:1;stroke-width:0.00944115" /><path
         d="m 16.073328,13.175941 a 0.14615113,0.14417779 0 0 0 -0.206353,-0.01008 0.14615113,0.14417779 0 0 0 -0.01023,0.203568 l 0.07933,0.08642 a 0.14600512,0.14403376 0 0 0 0.108045,0.04705 c 0.03504,0 0.07008,-0.01248 0.09782,-0.03745 a 0.14615113,0.14417779 0 0 0 0.01023,-0.203567 z"
         fill="#333333"
         p-id="2621"
         id="path492"
         style="fill-opacity:1;stroke-width:0.00944115" /><path
         d="M 23.275274,11.186835 22.079493,9.3408023 C 21.987023,9.1977286 21.82885,9.1127488 21.65705,9.1127488 h -5.544786 c -0.172773,0 -0.331433,0.08594 -0.423902,0.230454 L 15.46546,9.6912844 c -0.04283,0.067216 -0.02287,0.1560366 0.04526,0.1987666 0.06813,0.04273 0.158171,0.022565 0.201486,-0.044651 l 0.202946,-0.3168743 1.131541,1.8066643 h -2.288874 l 0.635122,-0.990953 c 0.04283,-0.06721 0.02288,-0.156036 -0.04526,-0.198766 -0.06813,-0.04225 -0.158171,-0.02257 -0.201486,0.04465 l -0.639503,0.997674 c -0.115831,0.181002 -0.10123,0.413377 0.03504,0.576615 l 0.863377,1.075452 a 0.14537243,0.14340961 0 0 0 0.204895,0.02353 c 0.06327,-0.04945 0.07397,-0.140193 0.02385,-0.202128 l -0.833201,-1.038003 h 2.398864 l 1.349087,4.490012 -1.968636,-2.339588 a 0.14590779,0.14393774 0 0 0 -0.224362,0.183883 l 2.078628,2.470659 c 0.102202,0.122429 0.248208,0.196846 0.406381,0.21077 0.01558,0.0029 0.03163,0.0053 0.04769,0.0053 h 0.0029 c 0.01508,0 0.02969,-0.0019 0.0438,-0.0048 0.16158,-0.01152 0.311477,-0.08642 0.415628,-0.21125 l 3.889577,-4.660932 c 0.138218,-0.165639 0.152818,-0.398974 0.03504,-0.580456 z m -0.250155,0.148355 h -2.404704 l 1.228876,-1.8153059 z m -4.138758,4.889466 -1.38267,-4.601399 h 2.655347 z m 1.462971,-5.008054 -1.188969,-1.8162658 h 2.418331 z M 18.610897,9.4008163 17.316319,11.217562 16.178452,9.4008163 Z m 0.27595,0.1133065 1.191889,1.8210672 h -2.489388 z m 0.325591,6.6265132 1.249804,-4.517379 h 2.520049 z"
         fill="#333333"
         p-id="2622"
         id="path494"
         style="fill-opacity:1;stroke-width:0.00944115" /><path
         d="m 17.221903,13.820252 c -0.0365,0 -0.07252,-0.01584 -0.09637,-0.04657 l -0.11875,-0.151235 a 0.12215762,0.12050824 0 0 1 0.0219,-0.16852 0.12215762,0.12050824 0 0 1 0.170827,0.02161 l 0.11875,0.151236 a 0.12215762,0.12050824 0 0 1 -0.0219,0.168519 c -0.02239,0.0168 -0.04867,0.02497 -0.07446,0.02497 z m -0.404435,-0.578055 c -0.0365,0 -0.07252,-0.01584 -0.09636,-0.04657 l -0.806922,-1.030802 a 0.12215762,0.12050824 0 0 1 0.0219,-0.168519 0.12215762,0.12050824 0 0 1 0.170826,0.02161 l 0.806921,1.030801 a 0.12215762,0.12050824 0 0 1 -0.0219,0.16852 c -0.02239,0.0168 -0.04867,0.02497 -0.07446,0.02497 z m -0.910099,-2.129299 c -0.02239,0 -0.04429,-0.0058 -0.06473,-0.01825 a 0.12201161,0.12036421 0 0 1 -0.03845,-0.165639 l 0.251617,-0.395132 a 0.12201161,0.12036421 0 0 1 0.167905,-0.03793 c 0.05694,0.03505 0.07398,0.109466 0.03845,0.165639 l -0.251614,0.395132 c -0.02288,0.03601 -0.0623,0.05617 -0.103178,0.05617 z"
         fill="#ffffff"
         p-id="2623"
         id="path496"
         style="fill-opacity:1;stroke-width:0.00944115" /><path
         d="m 21.651697,11.156588 c -0.02239,0 -0.04429,-0.0058 -0.06473,-0.01824 a 0.12201161,0.12036421 0 0 1 -0.03845,-0.165638 l 0.251616,-0.395133 a 0.12201161,0.12036421 0 0 1 0.167905,-0.03793 c 0.05694,0.03505 0.07398,0.109466 0.03845,0.165639 l -0.251614,0.395133 c -0.02336,0.03601 -0.06278,0.05617 -0.103178,0.05617 z"
         fill="#ffffff"
         p-id="2624"
         id="path498"
         style="fill-opacity:1;stroke-width:0.00944115" /><path
         d="m 18.647398,11.108577 c -0.02239,0 -0.04429,-0.0058 -0.06473,-0.01825 a 0.12201161,0.12036421 0 0 1 -0.03845,-0.165639 l 0.251616,-0.395132 a 0.12201161,0.12036421 0 0 1 0.167905,-0.03793 c 0.05694,0.03505 0.07398,0.109466 0.03845,0.165639 l -0.251614,0.395132 c -0.02336,0.03601 -0.06278,0.05617 -0.103178,0.05617 z"
         fill="#ffffff"
         p-id="2625"
         id="path500"
         style="fill-opacity:1;stroke-width:0.00944115" /></g><text
       xml:space="preserve"
       style="font-style:normal;font-variant:normal;font-weight:bold;font-stretch:normal;font-size:5.29167px;font-family:'Sitka Banner';-inkscape-font-specification:'Sitka Banner, Bold';font-variant-ligatures:normal;font-variant-caps:normal;font-variant-numeric:normal;font-variant-east-asian:normal;fill:#ff9900;stroke-width:0.264583"
       x="23.52758"
       y="14.881743"
       id="text533"><tspan
         id="tspan531"
         style="font-style:normal;font-variant:normal;font-weight:bold;font-stretch:normal;font-size:5.29167px;font-family:'Sitka Banner';-inkscape-font-specification:'Sitka Banner, Bold';font-variant-ligatures:normal;font-variant-caps:normal;font-variant-numeric:normal;font-variant-east-asian:normal;stroke-width:0.264583"
         x="23.52758"
         y="14.881743"
         sodipodi:role="line">Financier</tspan></text></g></svg>
