<?xml version="1.0" encoding="UTF-8" standalone="no"?>
<!-- Created with Inkscape (http://www.inkscape.org/) -->

<svg
   width="113"
   height="39"
   viewBox="0 0 29.897916 10.31875"
   version="1.1"
   id="svg128"
   inkscape:version="1.2.1 (9c6d41e410, 2022-07-14)"
   sodipodi:docname="image-not-found.svg"
   xmlns:inkscape="http://www.inkscape.org/namespaces/inkscape"
   xmlns:sodipodi="http://sodipodi.sourceforge.net/DTD/sodipodi-0.dtd"
   xmlns="http://www.w3.org/2000/svg"
   xmlns:svg="http://www.w3.org/2000/svg">
  <sodipodi:namedview
     id="namedview130"
     pagecolor="#ffffff"
     bordercolor="#000000"
     borderopacity="0.25"
     inkscape:showpageshadow="2"
     inkscape:pageopacity="0.0"
     inkscape:pagecheckerboard="0"
     inkscape:deskcolor="#d1d1d1"
     inkscape:document-units="mm"
     showgrid="false"
     inkscape:zoom="16"
     inkscape:cx="33.5"
     inkscape:cy="20.46875"
     inkscape:window-width="1920"
     inkscape:window-height="1001"
     inkscape:window-x="-9"
     inkscape:window-y="-9"
     inkscape:window-maximized="1"
     inkscape:current-layer="g1555" />
  <defs
     id="defs125" />
  <g
     inkscape:label="图层 1"
     inkscape:groupmode="layer"
     id="layer1">
    <g
       id="g1555"
       transform="matrix(0.94808994,0,0,0.88759654,1.9006544,0.6949021)">
      <rect
         style="fill:none;stroke:#000000;stroke-width:0.4;stroke-linecap:round;stroke-linejoin:round;stroke-dasharray:none;stroke-opacity:0.950437"
         id="rect446"
         width="9.2746172"
         height="6.7393413"
         x="0.89176607"
         y="1.7852095" />
      <path
         style="fill:#000000;stroke:#000000;stroke-width:0.4;stroke-dasharray:none;stroke-opacity:0.950437"
         d="m 1.2160763,8.404317 c 0,0 1.122532,-3.9288619 2.8063299,-4.2094949 1.683798,-0.2806329 2.5256971,4.0691784 2.5256971,4.0691784 z"
         id="path900" />
      <path
         style="fill:#000000;stroke:#000000;stroke-width:0.4;stroke-dasharray:none;stroke-opacity:1"
         d="m 5.07478,8.2172284 c 0,0 0.6080382,-2.6660136 2.0579755,-2.5256971 1.449937,0.1403168 2.5724691,2.5724694 2.5724691,2.5724694 z"
         id="path902" />
      <path
         style="fill:#ffffff;stroke:#000000;stroke-width:0.4;stroke-dasharray:none;stroke-opacity:0"
         d="m 6.8988945,0.18708866 c 0,0 0.561266,1.66041184 0.023387,2.33860834 -0.53788,0.6781964 -2.1099101,3.4378139 -1.4317137,3.9055355 0.6781964,0.4677217 -0.719806,2.3619348 -0.719806,2.3619348 0,0 0.233861,1.5434817 0.9354434,0.7717406 C 6.4077871,8.7931673 7.4197239,6.675387 6.8350718,6.2076653 6.2504196,5.7399437 8.1383574,2.7595577 8.1383574,2.7595577 c 0,0 1.1926903,-1.3797788 0.2572469,-2.17490563 C 7.4601605,-0.21047476 6.8988945,0.18708866 6.8988945,0.18708866 Z"
         id="path960"
         sodipodi:nodetypes="csscsscsc" />
    </g>
    <text
       xml:space="preserve"
       style="font-weight:bold;font-size:3.88056px;font-family:'Sitka Banner';-inkscape-font-specification:'Sitka Banner, Bold';fill:#000000;stroke:#000000;stroke-width:0.1;stroke-linecap:butt;stroke-linejoin:miter;stroke-dasharray:none;stroke-opacity:0"
       x="12.637198"
       y="6.4545593"
       id="text2217"><tspan
         sodipodi:role="line"
         id="tspan2215"
         style="font-style:normal;font-variant:normal;font-weight:normal;font-stretch:normal;font-size:3.88056px;font-family:'Sitka Banner';-inkscape-font-specification:'Sitka Banner';fill:#404040;stroke-width:0.1"
         x="12.637198"
         y="6.4545593">图片走丢</tspan></text>
  </g>
</svg>
